<mxfile host="65bd71144e">
    <diagram id="Bl3BV1Q3AJo9c3ZAJUCx" name="Page-1">
        <mxGraphModel dx="1235" dy="1679" grid="1" gridSize="10" guides="1" tooltips="1" connect="1" arrows="1" fold="1" page="1" pageScale="1" pageWidth="850" pageHeight="1100" math="0" shadow="0">
            <root>
                <mxCell id="0"/>
                <mxCell id="1" parent="0"/>
                <mxCell id="6" value="&lt;table border=&quot;1&quot; width=&quot;100%&quot; height=&quot;100%&quot; cellpadding=&quot;4&quot; style=&quot;width:100%;height:100%;border-collapse:collapse;&quot;&gt;&lt;tbody&gt;&lt;tr&gt;&lt;th align=&quot;center&quot;&gt;Libro&lt;/th&gt;&lt;/tr&gt;&lt;tr&gt;&lt;td&gt;-titulo: str&lt;br&gt;-autor: str&lt;br&gt;-disponibilidad: bool&lt;/td&gt;&lt;/tr&gt;&lt;tr&gt;&lt;td&gt;visualizarDisponibilidad ():&amp;nbsp;&lt;br&gt;&lt;br&gt;&lt;br&gt;&lt;/td&gt;&lt;/tr&gt;&lt;/tbody&gt;&lt;/table&gt;" style="text;html=1;whiteSpace=wrap;strokeColor=none;fillColor=none;overflow=fill;" vertex="1" parent="1">
                    <mxGeometry x="630" y="55" width="160" height="140" as="geometry"/>
                </mxCell>
                <mxCell id="7" value="&lt;table border=&quot;1&quot; width=&quot;100%&quot; height=&quot;100%&quot; cellpadding=&quot;4&quot; style=&quot;width:100%;height:100%;border-collapse:collapse;&quot;&gt;&lt;tbody&gt;&lt;tr&gt;&lt;th align=&quot;center&quot;&gt;Usuario&lt;/th&gt;&lt;/tr&gt;&lt;tr&gt;&lt;td&gt;-id: Int&lt;br&gt;-nombre: str&lt;br&gt;#password:str&lt;br&gt;-email: str&lt;/td&gt;&lt;/tr&gt;&lt;tr&gt;&lt;td&gt;-listaLibrosPrestados ():&amp;nbsp;&lt;br&gt;-historialPrestamo ():&amp;nbsp;&lt;br&gt;&lt;span style=&quot;color: rgb(63, 63, 63);&quot;&gt;-confirmarPrestamo ():&lt;/span&gt;&lt;/td&gt;&lt;/tr&gt;&lt;/tbody&gt;&lt;/table&gt;" style="text;html=1;whiteSpace=wrap;strokeColor=none;fillColor=none;overflow=fill;" vertex="1" parent="1">
                    <mxGeometry x="80" y="60" width="160" height="150" as="geometry"/>
                </mxCell>
                <mxCell id="9" value="&lt;table border=&quot;1&quot; width=&quot;100%&quot; height=&quot;100%&quot; cellpadding=&quot;4&quot; style=&quot;width:100%;height:100%;border-collapse:collapse;&quot;&gt;&lt;tbody&gt;&lt;tr&gt;&lt;th align=&quot;center&quot;&gt;Prestamo&lt;/th&gt;&lt;/tr&gt;&lt;tr&gt;&lt;td&gt;fechaPrestamo: date&lt;br&gt;fechaDeDevolucionEsperado: date&lt;br&gt;fechaRealDevolucion: date&lt;br&gt;- estaConfirmado: bool&lt;/td&gt;&lt;/tr&gt;&lt;tr&gt;&lt;td&gt;&amp;nbsp;+ marcarComoConfirmado(): void&lt;br&gt;&lt;br&gt;&lt;br&gt;&lt;br&gt;&lt;/td&gt;&lt;/tr&gt;&lt;/tbody&gt;&lt;/table&gt;" style="text;html=1;whiteSpace=wrap;strokeColor=none;fillColor=none;overflow=fill;" vertex="1" parent="1">
                    <mxGeometry x="320" y="60" width="220" height="160" as="geometry"/>
                </mxCell>
                <mxCell id="10" value="" style="line;strokeWidth=2;html=1;" vertex="1" parent="1">
                    <mxGeometry x="240" y="110" width="80" height="10" as="geometry"/>
                </mxCell>
                <mxCell id="11" value="" style="html=1;whiteSpace=wrap;aspect=fixed;shape=isoRectangle;fillColor=none;" vertex="1" parent="1">
                    <mxGeometry x="600" y="145" width="33.34" height="20" as="geometry"/>
                </mxCell>
                <mxCell id="12" value="" style="line;strokeWidth=2;html=1;" vertex="1" parent="1">
                    <mxGeometry x="540" y="150" width="70" height="10" as="geometry"/>
                </mxCell>
                <mxCell id="14" value="&lt;table border=&quot;1&quot; width=&quot;100%&quot; height=&quot;100%&quot; cellpadding=&quot;4&quot; style=&quot;width:100%;height:100%;border-collapse:collapse;&quot;&gt;&lt;tbody&gt;&lt;tr&gt;&lt;th align=&quot;center&quot;&gt;Bibliotecario&lt;/th&gt;&lt;/tr&gt;&lt;tr&gt;&lt;td&gt;id: int&lt;br&gt;nombre: string&lt;br&gt;&lt;br&gt;&lt;/td&gt;&lt;/tr&gt;&lt;tr&gt;&lt;td&gt;+historialPrestamoUsuarios ():&amp;nbsp;&lt;br&gt;+visualizarAtrasoEntregas():&lt;br&gt;-ingresarLibro():&amp;nbsp;&lt;br&gt;-borrarLibro():&lt;br&gt;#crearPrestamo():&lt;br&gt;&lt;span style=&quot;color: rgb(63, 63, 63);&quot;&gt;+devolverLibro ():&amp;nbsp;&lt;/span&gt;&lt;br&gt;&lt;span style=&quot;color: rgb(63, 63, 63);&quot;&gt;-detectarAtrasoEntrega():&lt;/span&gt;&lt;/td&gt;&lt;/tr&gt;&lt;/tbody&gt;&lt;/table&gt;" style="text;html=1;whiteSpace=wrap;strokeColor=none;fillColor=none;overflow=fill;" vertex="1" parent="1">
                    <mxGeometry x="350" y="-240" width="190" height="190" as="geometry"/>
                </mxCell>
                <mxCell id="15" value="1" style="text;strokeColor=none;align=center;fillColor=none;html=1;verticalAlign=middle;whiteSpace=wrap;rounded=0;" vertex="1" parent="1">
                    <mxGeometry x="230" y="90" width="30" height="20" as="geometry"/>
                </mxCell>
                <mxCell id="16" value="1*" style="text;strokeColor=none;align=center;fillColor=none;html=1;verticalAlign=middle;whiteSpace=wrap;rounded=0;" vertex="1" parent="1">
                    <mxGeometry x="290" y="90" width="30" height="20" as="geometry"/>
                </mxCell>
                <mxCell id="26" value="" style="endArrow=none;html=1;exitX=0.5;exitY=0;exitDx=0;exitDy=0;" edge="1" parent="1" source="7">
                    <mxGeometry width="50" height="50" relative="1" as="geometry">
                        <mxPoint x="80" y="-20" as="sourcePoint"/>
                        <mxPoint x="380" y="-50" as="targetPoint"/>
                        <Array as="points">
                            <mxPoint x="160"/>
                            <mxPoint x="280"/>
                            <mxPoint x="380"/>
                        </Array>
                    </mxGeometry>
                </mxCell>
                <mxCell id="27" value="" style="endArrow=none;html=1;exitX=0.539;exitY=0.02;exitDx=0;exitDy=0;exitPerimeter=0;entryX=0.463;entryY=0.991;entryDx=0;entryDy=0;entryPerimeter=0;" edge="1" parent="1" source="9" target="14">
                    <mxGeometry width="50" height="50" relative="1" as="geometry">
                        <mxPoint x="390" y="10" as="sourcePoint"/>
                        <mxPoint x="440" y="-40" as="targetPoint"/>
                    </mxGeometry>
                </mxCell>
                <mxCell id="28" value="" style="endArrow=none;html=1;exitX=0.588;exitY=-0.005;exitDx=0;exitDy=0;exitPerimeter=0;" edge="1" parent="1" source="6">
                    <mxGeometry width="50" height="50" relative="1" as="geometry">
                        <mxPoint x="733.04" y="54.999999999999964" as="sourcePoint"/>
                        <mxPoint x="516.96" y="-48.04" as="targetPoint"/>
                        <Array as="points">
                            <mxPoint x="726.96" y="1.96"/>
                            <mxPoint x="520"/>
                        </Array>
                    </mxGeometry>
                </mxCell>
            </root>
        </mxGraphModel>
    </diagram>
</mxfile>